# xmcd CD database file
#
# Track frame offsets:
#	150
#	22336
#	42264
#	59835
#	81993
#	332550
#
# Disc length: 4440 seconds
#
# Revision: 0
# Processed by: cddbd v1.5.1PL2 Copyright (c) Steve Scherf et al.
# Submitted via: CDex 1.60beta1
#
DISCID=55115606
DTITLE=コザック前田と泉谷しげる - 生活／永遠のウソつき
DYEAR=2004
DGENRE=JPop
TTITLE0=生活
TTITLE1=永遠のウソつき
TTITLE2=愛人
TTITLE3=雨ニモ負ケズ風にも…
TTITLE4=fuck
TTITLE5=fuck
EXTD=YEAR: 2004
EXTT0=
EXTT1=
EXTT2=
EXTT3=
EXTT4=
EXTT5=
PLAYORDER=
